<svg width="28" height="27" viewBox="0 0 28 27" fill="none" xmlns="http://www.w3.org/2000/svg">
<path d="M5.564 26.765H22.2C23.5427 26.7637 24.8301 26.2298 25.7797 25.2804C26.7292 24.331 27.2634 23.0437 27.265 21.701V11.445C27.265 11.0472 27.107 10.6656 26.8257 10.3843C26.5444 10.103 26.1628 9.945 25.765 9.945C25.3672 9.945 24.9856 10.103 24.7043 10.3843C24.423 10.6656 24.265 11.0472 24.265 11.445V21.7C24.2642 22.2473 24.0464 22.772 23.6592 23.1589C23.2721 23.5459 22.7473 23.7635 22.2 23.764H5.564C5.01701 23.7632 4.49264 23.5456 4.10576 23.1589C3.71889 22.7723 3.50106 22.248 3.5 21.701V5.065C3.5 3.927 4.426 3 5.564 3H15.82C16.2178 3 16.5994 2.84196 16.8807 2.56066C17.162 2.27936 17.32 1.89782 17.32 1.5C17.32 1.10218 17.162 0.720644 16.8807 0.43934C16.5994 0.158035 16.2178 0 15.82 0H5.564C4.22109 0.00158883 2.93366 0.535901 1.98426 1.48567C1.03486 2.43545 0.501059 3.72308 0.5 5.066V21.701C0.501588 23.0436 1.03562 24.3307 1.98497 25.28C2.93431 26.2294 4.22143 26.7634 5.564 26.765Z" fill="#4F7396"/>
</svg>
