<svg width="19" height="19" viewBox="0 0 19 19" fill="none" xmlns="http://www.w3.org/2000/svg">
<path d="M15.15 0.939997C15.0109 0.800669 14.8456 0.690136 14.6637 0.614721C14.4819 0.539306 14.2869 0.500488 14.09 0.500488C13.8931 0.500488 13.6981 0.539306 13.5162 0.614721C13.3343 0.690136 13.1691 0.800669 13.03 0.939997L1.55999 12.4C1.29999 12.66 1.14999 13.01 1.12999 13.38L0.929988 16.99C0.909988 17.41 1.06999 17.83 1.36999 18.13C1.64999 18.41 2.02999 18.57 2.42999 18.57H2.50999L6.11999 18.37C6.47999 18.35 6.82999 18.19 7.08999 17.93L18.56 6.48C18.84 6.19 19 5.81 19 5.42C19 5.02 18.84 4.64 18.56 4.35L15.15 0.939997Z" fill="#4F7396"/>
</svg>
