<svg width="19" height="11" viewBox="0 0 19 11" fill="none" xmlns="http://www.w3.org/2000/svg">
<path d="M15.7089 0.5H3.49074C2.79636 0.5 2.13041 0.81607 1.63941 1.37868C1.1484 1.94129 0.872559 2.70435 0.872559 3.5V7.5C0.872559 8.29565 1.1484 9.05871 1.63941 9.62132C2.13041 10.1839 2.79636 10.5 3.49074 10.5H15.7089C16.4033 10.5 17.0693 10.1839 17.5603 9.62132C18.0513 9.05871 18.3271 8.29565 18.3271 7.5V3.5C18.3271 2.70435 18.0513 1.94129 17.5603 1.37868C17.0693 0.81607 16.4033 0.5 15.7089 0.5ZM4.36347 6.5C4.19086 6.5 4.02213 6.44135 3.87861 6.33147C3.73509 6.22159 3.62323 6.06541 3.55717 5.88268C3.49112 5.69996 3.47384 5.49889 3.50751 5.30491C3.54118 5.11093 3.6243 4.93275 3.74636 4.79289C3.86841 4.65304 4.02391 4.5578 4.19321 4.51921C4.3625 4.48063 4.53798 4.50043 4.69745 4.57612C4.85692 4.65181 4.99322 4.77998 5.08911 4.94443C5.18501 5.10888 5.2362 5.30222 5.2362 5.5C5.2362 5.76522 5.14425 6.01957 4.98058 6.20711C4.81691 6.39464 4.59493 6.5 4.36347 6.5ZM7.85438 6.5C7.68177 6.5 7.51303 6.44135 7.36951 6.33147C7.226 6.22159 7.11414 6.06541 7.04808 5.88268C6.98203 5.69996 6.96474 5.49889 6.99842 5.30491C7.03209 5.11093 7.11521 4.93275 7.23727 4.79289C7.35932 4.65304 7.51482 4.5578 7.68412 4.51921C7.85341 4.48063 8.02889 4.50043 8.18836 4.57612C8.34783 4.65181 8.48413 4.77998 8.58002 4.94443C8.67592 5.10888 8.7271 5.30222 8.7271 5.5C8.7271 5.76522 8.63516 6.01957 8.47149 6.20711C8.30782 6.39464 8.08584 6.5 7.85438 6.5ZM11.3453 6.5C11.1727 6.5 11.0039 6.44135 10.8604 6.33147C10.7169 6.22159 10.605 6.06541 10.539 5.88268C10.4729 5.69996 10.4557 5.49889 10.4893 5.30491C10.523 5.11093 10.6061 4.93275 10.7282 4.79289C10.8502 4.65304 11.0057 4.5578 11.175 4.51921C11.3443 4.48063 11.5198 4.50043 11.6793 4.57612C11.8387 4.65181 11.975 4.77998 12.0709 4.94443C12.1668 5.10888 12.218 5.30222 12.218 5.5C12.218 5.76522 12.1261 6.01957 11.9624 6.20711C11.7987 6.39464 11.5767 6.5 11.3453 6.5ZM14.8362 6.5C14.6636 6.5 14.4949 6.44135 14.3513 6.33147C14.2078 6.22159 14.096 6.06541 14.0299 5.88268C13.9638 5.69996 13.9466 5.49889 13.9802 5.30491C14.0139 5.11093 14.097 4.93275 14.2191 4.79289C14.3411 4.65304 14.4966 4.5578 14.6659 4.51921C14.8352 4.48063 15.0107 4.50043 15.1702 4.57612C15.3296 4.65181 15.4659 4.77998 15.5618 4.94443C15.6577 5.10888 15.7089 5.30222 15.7089 5.5C15.7089 5.76522 15.617 6.01957 15.4533 6.20711C15.2896 6.39464 15.0677 6.5 14.8362 6.5Z" fill="#6A98C6"/>
</svg>
