<svg width="103" height="78" viewBox="0 0 103 78" fill="none" xmlns="http://www.w3.org/2000/svg">
<path d="M83.7742 48.9233H64.5482C61.0235 48.9233 58.1396 46.7425 58.1396 44.0771C58.1396 41.4117 61.0235 39.231 64.5482 39.231H83.7742C83.7742 39.231 103 23.0267 103 15.0003C103 6.97391 94.3885 0.461914 83.7742 0.461914C73.1599 0.461914 64.5482 6.97391 64.5482 15.0003C64.5482 18.8621 68.9942 24.6017 73.6205 29.5387H64.5482C53.954 29.5387 45.3223 36.0659 45.3223 44.0771C45.3223 52.0884 53.954 58.6155 64.5482 58.6155H83.7742C87.2989 58.6155 90.1828 60.7963 90.1828 63.4617C90.1828 66.127 87.2989 68.3078 83.7742 68.3078H37.612C34.4076 72.0635 30.8428 75.5316 28.1392 78.0001H83.7742C94.3684 78.0001 103 71.4729 103 63.4617C103 55.4504 94.3684 48.9233 83.7742 48.9233ZM83.7742 10.1542C87.3189 10.1542 90.1828 12.3198 90.1828 15.0003C90.1828 17.6808 87.3189 19.8464 83.7742 19.8464C80.2294 19.8464 77.3655 17.6808 77.3655 15.0003C77.3655 12.3198 80.2294 10.1542 83.7742 10.1542ZM19.6878 39.231C9.07352 39.231 0.461914 45.743 0.461914 53.7694C0.461914 61.7958 19.6878 78.0001 19.6878 78.0001C19.6878 78.0001 38.9137 61.7958 38.9137 53.7694C38.9137 45.743 30.3021 39.231 19.6878 39.231ZM19.6878 58.6155C16.143 58.6155 13.2792 56.4499 13.2792 53.7694C13.2792 51.0889 16.143 48.9233 19.6878 48.9233C23.2326 48.9233 26.0964 51.0889 26.0964 53.7694C26.0964 56.4499 23.2326 58.6155 19.6878 58.6155Z" fill="#09121A"/>
</svg>
