<svg width="16" height="16" viewBox="0 0 16 16" fill="none" xmlns="http://www.w3.org/2000/svg">
<path fill-rule="evenodd" clip-rule="evenodd" d="M15.5 8C15.5 8.34518 15.2202 8.625 14.875 8.625H8.625V14.875C8.625 15.2202 8.34518 15.5 8 15.5C7.65482 15.5 7.375 15.2202 7.375 14.875V8.625H1.125C0.779822 8.625 0.5 8.34518 0.5 8C0.5 7.65482 0.779822 7.375 1.125 7.375H7.375V1.125C7.375 0.779822 7.65482 0.5 8 0.5C8.34518 0.5 8.625 0.779822 8.625 1.125V7.375H14.875C15.2202 7.375 15.5 7.65482 15.5 8Z" fill="white"/>
</svg>
