<svg width="68" height="78" viewBox="0 0 68 78" fill="none" xmlns="http://www.w3.org/2000/svg">
<path d="M59.5 9.75H45.3333C45.3333 4.37227 40.251 0 34 0C27.749 0 22.6667 4.37227 22.6667 9.75H8.5C3.80729 9.75 0 13.0254 0 17.0625V70.6875C0 74.7246 3.80729 78 8.5 78H59.5C64.1927 78 68 74.7246 68 70.6875V17.0625C68 13.0254 64.1927 9.75 59.5 9.75ZM17 64.5938C14.6448 64.5938 12.75 62.9637 12.75 60.9375C12.75 58.9113 14.6448 57.2812 17 57.2812C19.3552 57.2812 21.25 58.9113 21.25 60.9375C21.25 62.9637 19.3552 64.5938 17 64.5938ZM17 49.9688C14.6448 49.9688 12.75 48.3387 12.75 46.3125C12.75 44.2863 14.6448 42.6562 17 42.6562C19.3552 42.6562 21.25 44.2863 21.25 46.3125C21.25 48.3387 19.3552 49.9688 17 49.9688ZM17 35.3438C14.6448 35.3438 12.75 33.7137 12.75 31.6875C12.75 29.6613 14.6448 28.0312 17 28.0312C19.3552 28.0312 21.25 29.6613 21.25 31.6875C21.25 33.7137 19.3552 35.3438 17 35.3438ZM34 6.09375C36.3552 6.09375 38.25 7.72383 38.25 9.75C38.25 11.7762 36.3552 13.4062 34 13.4062C31.6448 13.4062 29.75 11.7762 29.75 9.75C29.75 7.72383 31.6448 6.09375 34 6.09375ZM56.6667 62.1562C56.6667 62.8266 56.0292 63.375 55.25 63.375H29.75C28.9708 63.375 28.3333 62.8266 28.3333 62.1562V59.7188C28.3333 59.0484 28.9708 58.5 29.75 58.5H55.25C56.0292 58.5 56.6667 59.0484 56.6667 59.7188V62.1562ZM56.6667 47.5312C56.6667 48.2016 56.0292 48.75 55.25 48.75H29.75C28.9708 48.75 28.3333 48.2016 28.3333 47.5312V45.0938C28.3333 44.4234 28.9708 43.875 29.75 43.875H55.25C56.0292 43.875 56.6667 44.4234 56.6667 45.0938V47.5312ZM56.6667 32.9062C56.6667 33.5766 56.0292 34.125 55.25 34.125H29.75C28.9708 34.125 28.3333 33.5766 28.3333 32.9062V30.4688C28.3333 29.7984 28.9708 29.25 29.75 29.25H55.25C56.0292 29.25 56.6667 29.7984 56.6667 30.4688V32.9062Z" fill="#0C1305"/>
</svg>
