<svg width="68" height="78" viewBox="0 0 68 78" fill="none" xmlns="http://www.w3.org/2000/svg">
<path d="M67.9959 46.3125C67.9959 63.8168 52.7786 78 33.998 78C15.2174 78 0 63.8168 0 46.3125C0 30.4688 12.4714 17.3367 28.7675 15.0059V9.75H24.1909C23.1121 9.75 22.2294 8.92734 22.2294 7.92188V1.82812C22.2294 0.822656 23.1121 0 24.1909 0H43.8051C44.8838 0 45.7665 0.822656 45.7665 1.82812V7.92188C45.7665 8.92734 44.8838 9.75 43.8051 9.75H39.2284V15.0059C45.3579 15.8895 50.9479 18.2965 55.5246 21.8004L60.0195 17.6109C60.7877 16.8949 62.0299 16.8949 62.7982 17.6109L67.4238 21.9223C68.1921 22.6383 68.1921 23.7961 67.4238 24.5121L62.6184 28.991L62.5203 29.0824C65.9855 34.0184 67.9959 39.9445 67.9959 46.3125ZM39.2284 51.7969V28.7168C39.2284 27.7113 38.3458 26.8887 37.267 26.8887H30.7289C29.6501 26.8887 28.7675 27.7113 28.7675 28.7168V51.7969C28.7675 52.8023 29.6501 53.625 30.7289 53.625H37.267C38.3458 53.625 39.2284 52.8023 39.2284 51.7969Z" fill="#1E0B14"/>
</svg>
