<svg width="79" height="78" viewBox="0 0 79 78" fill="none" xmlns="http://www.w3.org/2000/svg">
<path d="M39.6871 0.110352C30.1879 0.110352 22.4878 8.69189 22.4878 19.2785C22.4878 27.8372 33.7288 43.4364 38.0355 49.0986C38.9077 50.2457 40.4679 50.2457 41.3388 49.0986C45.6455 43.4364 56.8865 27.8372 56.8865 19.2785C56.8865 8.69189 49.1864 0.110352 39.6871 0.110352ZM39.6871 25.6679C36.5203 25.6679 33.954 22.8079 33.954 19.2785C33.954 15.7491 36.5203 12.8891 39.6871 12.8891C42.854 12.8891 45.4203 15.7491 45.4203 19.2785C45.4203 22.8079 42.854 25.6679 39.6871 25.6679ZM3.12071 32.9624C2.31012 33.3237 1.61526 33.9474 1.12573 34.753C0.636201 35.5586 0.374462 36.5092 0.374268 37.4821L0.374268 75.5628C0.374268 77.2849 1.9345 78.4624 3.36914 77.8234L22.2148 68.2637V32.8057C21.0081 30.3747 20.0212 28.0076 19.3141 25.7439L3.12071 32.9624ZM39.6871 54.8262C37.7665 54.8262 35.9497 53.8861 34.7034 52.2462C32.0198 48.7168 29.1655 44.6976 26.5829 40.5749V68.2622L52.7914 77.9984V40.5764C50.2088 44.6976 47.3559 48.7183 44.6709 52.2477C43.4246 53.8861 41.6077 54.8262 39.6871 54.8262ZM76.0051 24.6273L57.1595 34.187V77.9999L76.2536 69.4883C77.0643 69.1272 77.7592 68.5036 78.2488 67.6979C78.7383 66.8923 79 65.9416 79 64.9686V26.8879C79 25.1658 77.4398 23.9884 76.0051 24.6273Z" fill="#09121A"/>
</svg>
