<svg width="15" height="19" viewBox="0 0 15 19" fill="none" xmlns="http://www.w3.org/2000/svg">
<path d="M10.5624 5.1184C10.5624 5.28323 10.5511 5.44806 10.5305 5.61101C10.5399 5.54546 10.5493 5.47803 10.5568 5.41247C10.5118 5.73838 10.4255 6.05493 10.2999 6.35836C10.3243 6.29842 10.3505 6.23848 10.3749 6.17855C10.2493 6.47449 10.088 6.7517 9.89113 7.00643L10.0093 6.85472C9.81425 7.10571 9.58738 7.33234 9.33613 7.52714L9.488 7.40914C9.233 7.60394 8.9555 7.76689 8.65925 7.89239C8.71925 7.86804 8.77925 7.84181 8.83925 7.81746C8.5355 7.94296 8.21863 8.02912 7.89238 8.07407C7.958 8.06471 8.0255 8.05534 8.09113 8.04785C7.763 8.09093 7.433 8.09093 7.10488 8.04785C7.1705 8.05721 7.238 8.06658 7.30363 8.07407C6.97738 8.02912 6.6605 7.94296 6.35675 7.81746C6.41675 7.84181 6.47675 7.86804 6.53675 7.89239C6.2405 7.76689 5.963 7.60581 5.708 7.40914L5.85988 7.52714C5.60863 7.33234 5.38175 7.10571 5.18675 6.85472L5.30488 7.00643C5.10988 6.7517 4.94675 6.47449 4.82113 6.17855C4.8455 6.23848 4.87175 6.29842 4.89613 6.35836C4.7705 6.05493 4.68425 5.73838 4.63925 5.41247C4.64863 5.47803 4.658 5.54546 4.6655 5.61101C4.62238 5.28323 4.62238 4.95358 4.6655 4.62579C4.65613 4.69135 4.64675 4.75878 4.63925 4.82434C4.68425 4.49842 4.7705 4.18188 4.89613 3.87845C4.87175 3.93838 4.8455 3.99832 4.82113 4.05826C4.94675 3.76232 5.108 3.48511 5.30488 3.23037L5.18675 3.38209C5.38175 3.1311 5.60863 2.90446 5.85988 2.70966L5.708 2.82767C5.963 2.63287 6.2405 2.46991 6.53675 2.34442C6.47675 2.36877 6.41675 2.39499 6.35675 2.41934C6.6605 2.29385 6.97738 2.20769 7.30363 2.16273C7.238 2.1721 7.1705 2.18147 7.10488 2.18896C7.433 2.14588 7.763 2.14588 8.09113 2.18896C8.0255 2.17959 7.958 2.17023 7.89238 2.16273C8.21863 2.20769 8.5355 2.29385 8.83925 2.41934C8.77925 2.39499 8.71925 2.36877 8.65925 2.34442C8.9555 2.46991 9.233 2.631 9.488 2.82767L9.33613 2.70966C9.58738 2.90446 9.81425 3.1311 10.0093 3.38209L9.89113 3.23037C10.0861 3.48511 10.2493 3.76232 10.3749 4.05826C10.3505 3.99832 10.3243 3.93838 10.2999 3.87845C10.4255 4.18188 10.5118 4.49842 10.5568 4.82434C10.5474 4.75878 10.538 4.69135 10.5305 4.62579C10.5511 4.78875 10.5605 4.95357 10.5624 5.1184C10.5643 5.50987 10.9055 5.88635 11.3124 5.86762C11.7174 5.84889 12.0643 5.53797 12.0624 5.1184C12.0586 4.22121 11.7886 3.30342 11.2599 2.57293C11.1174 2.37626 10.9655 2.18334 10.7968 2.00915C10.6261 1.83308 10.4386 1.68136 10.2436 1.53339C9.88925 1.26367 9.49363 1.06513 9.07363 0.91154C7.3805 0.291561 5.33863 0.84411 4.193 2.23766C4.0355 2.42871 3.8855 2.62725 3.758 2.84078C3.6305 3.05243 3.53113 3.2772 3.43925 3.50571C3.26675 3.92902 3.17863 4.37855 3.143 4.8337C3.07363 5.72527 3.30613 6.65617 3.77113 7.42038C4.21925 8.15836 4.89613 8.79145 5.68738 9.1492C5.91988 9.25409 6.158 9.35149 6.4055 9.42079C6.65113 9.48822 6.9005 9.52568 7.15363 9.55565C7.61488 9.60997 8.0855 9.57251 8.54113 9.48073C10.2718 9.1286 11.7211 7.63952 11.9893 5.89197C12.0286 5.63724 12.0586 5.3825 12.0586 5.12402C12.0605 4.73256 11.7118 4.35607 11.3086 4.3748C10.9036 4.38791 10.5624 4.69884 10.5624 5.1184ZM13.0505 16.8306H3.42988C3.00425 16.8306 2.57863 16.8343 2.153 16.8306C2.10613 16.8306 2.05925 16.8268 2.01425 16.8212C2.07988 16.8306 2.14738 16.8399 2.213 16.8474C2.138 16.8362 2.06675 16.8156 1.99738 16.7875C2.05738 16.8118 2.11738 16.8381 2.17738 16.8624C2.10238 16.8306 2.033 16.7894 1.96738 16.7388L2.11925 16.8568C2.063 16.81 2.0105 16.7594 1.9655 16.7032L2.08363 16.8549C2.033 16.7894 1.99363 16.7201 1.95988 16.6451C1.98425 16.7051 2.0105 16.765 2.03488 16.8249C2.00675 16.7556 1.988 16.6826 1.97488 16.6095C1.98425 16.6751 1.99363 16.7425 2.00113 16.8081C1.97113 16.5814 1.99175 16.3417 1.99175 16.1132V15.3115C1.99175 15.1111 2.003 14.9126 2.02925 14.714C2.01988 14.7796 2.0105 14.847 2.003 14.9126C2.0555 14.5286 2.15675 14.1521 2.30863 13.7944C2.28425 13.8543 2.258 13.9142 2.23363 13.9742C2.37988 13.6333 2.56738 13.313 2.79425 13.0189L2.67613 13.1706C2.903 12.8803 3.16363 12.6181 3.45613 12.3914L3.30425 12.5094C3.59863 12.2828 3.91925 12.0955 4.2605 11.9494C4.2005 11.9738 4.1405 12 4.0805 12.0243C4.43863 11.8745 4.81363 11.7715 5.19988 11.719C5.13425 11.7284 5.06675 11.7378 5.00113 11.7452C5.27863 11.7097 5.55425 11.7078 5.83363 11.7078H9.26488C9.57425 11.7078 9.88175 11.7059 10.1911 11.7452C10.1255 11.7359 10.058 11.7265 9.99238 11.719C10.3768 11.7715 10.7536 11.8726 11.1118 12.0243C11.0518 12 10.9918 11.9738 10.9318 11.9494C11.273 12.0955 11.5936 12.2828 11.888 12.5094L11.7361 12.3914C12.0268 12.6181 12.2893 12.8784 12.5161 13.1706L12.398 13.0189C12.6249 13.313 12.8124 13.6333 12.9586 13.9742C12.9343 13.9142 12.908 13.8543 12.8836 13.7944C13.0336 14.1521 13.1368 14.5267 13.1893 14.9126C13.1799 14.847 13.1705 14.7796 13.163 14.714C13.1986 14.9969 13.2005 15.2778 13.2005 15.5625V16.4897C13.2005 16.5964 13.2043 16.7032 13.1911 16.8081C13.2005 16.7425 13.2099 16.6751 13.2174 16.6095C13.2061 16.6845 13.1855 16.7556 13.1574 16.8249C13.1818 16.765 13.208 16.7051 13.2324 16.6451C13.2005 16.7201 13.1593 16.7894 13.1086 16.8549L13.2268 16.7032C13.1799 16.7594 13.1293 16.8118 13.073 16.8568L13.2249 16.7388C13.1593 16.7894 13.0899 16.8287 13.0149 16.8624C13.0749 16.8381 13.1349 16.8118 13.1949 16.7875C13.1255 16.8156 13.0524 16.8343 12.9793 16.8474C13.0449 16.8381 13.1124 16.8287 13.178 16.8212C13.1368 16.8268 13.0936 16.8287 13.0505 16.8306C12.8574 16.8324 12.6586 16.913 12.5199 17.0497C12.3905 17.179 12.2911 17.3925 12.3005 17.5798C12.3193 17.9806 12.6305 18.3346 13.0505 18.329C13.7799 18.3178 14.4211 17.842 14.6349 17.1434C14.7193 16.8662 14.7005 16.5683 14.7005 16.2836C14.7005 15.6318 14.7211 14.9856 14.6086 14.3394C14.4436 13.3935 13.9674 12.5038 13.3149 11.8052C12.6624 11.1065 11.7849 10.5933 10.8568 10.3648C10.3243 10.2337 9.788 10.2131 9.24425 10.2131H5.918C5.36113 10.2131 4.808 10.2393 4.26613 10.3835C3.3455 10.627 2.47925 11.1459 1.83988 11.8501C1.19488 12.56 0.728003 13.4516 0.576128 14.4031C0.474878 15.0418 0.495503 15.6824 0.495503 16.3267C0.495503 16.6227 0.478628 16.9317 0.585503 17.2145C0.724253 17.5779 0.945503 17.8645 1.26988 18.0799C1.523 18.2466 1.84363 18.3271 2.14363 18.3309C2.28988 18.3327 2.43613 18.3309 2.58238 18.3309H13.0524C13.4443 18.3309 13.8211 17.9862 13.8024 17.5817C13.7836 17.1733 13.4724 16.8306 13.0505 16.8306Z" fill="#6A98C6"/>
</svg>
