<svg width="95" height="78" viewBox="0 0 95 78" fill="none" xmlns="http://www.w3.org/2000/svg">
<path d="M14.25 33.5768C19.4898 33.5768 23.75 28.5965 23.75 22.4709C23.75 16.3454 19.4898 11.3651 14.25 11.3651C9.01016 11.3651 4.75 16.3454 4.75 22.4709C4.75 28.5965 9.01016 33.5768 14.25 33.5768ZM80.75 33.5768C85.9898 33.5768 90.25 28.5965 90.25 22.4709C90.25 16.3454 85.9898 11.3651 80.75 11.3651C75.5102 11.3651 71.25 16.3454 71.25 22.4709C71.25 28.5965 75.5102 33.5768 80.75 33.5768ZM85.5 39.1297H76C73.3875 39.1297 71.0273 40.3617 69.3055 42.3573C75.2875 46.1923 79.5328 53.1161 80.4531 61.3414H90.25C92.8773 61.3414 95 58.8599 95 55.7884V50.2355C95 44.11 90.7398 39.1297 85.5 39.1297ZM47.5 39.1297C56.6883 39.1297 64.125 30.4359 64.125 19.6945C64.125 8.95306 56.6883 0.259277 47.5 0.259277C38.3117 0.259277 30.875 8.95306 30.875 19.6945C30.875 30.4359 38.3117 39.1297 47.5 39.1297ZM58.9 44.6826H57.668C54.5805 46.4179 51.1516 47.4591 47.5 47.4591C43.8484 47.4591 40.4344 46.4179 37.332 44.6826H36.1C26.6594 44.6826 19 53.6367 19 64.6731V69.6707C19 74.2692 22.1914 78.0001 26.125 78.0001H68.875C72.8086 78.0001 76 74.2692 76 69.6707V64.6731C76 53.6367 68.3406 44.6826 58.9 44.6826ZM25.6945 42.3573C23.9727 40.3617 21.6125 39.1297 19 39.1297H9.5C4.26016 39.1297 0 44.11 0 50.2355V55.7884C0 58.8599 2.12266 61.3414 4.75 61.3414H14.532C15.4672 53.1161 19.7125 46.1923 25.6945 42.3573Z" fill="#1E0B14"/>
</svg>
