<svg width="103" height="78" viewBox="0 0 103 78" fill="none" xmlns="http://www.w3.org/2000/svg">
<path d="M100.425 53.625H97.85V37.1566C97.85 35.2219 97.0292 33.3633 95.5808 31.9922L79.5031 16.773C78.0547 15.402 76.0913 14.625 74.0473 14.625H66.95V7.3125C66.95 3.27539 63.4898 0 59.225 0H7.725C3.46016 0 0 3.27539 0 7.3125V56.0625C0 60.0996 3.46016 63.375 7.725 63.375H10.3C10.3 71.4492 17.2203 78 25.75 78C34.2797 78 41.2 71.4492 41.2 63.375H61.8C61.8 71.4492 68.7203 78 77.25 78C85.7797 78 92.7 71.4492 92.7 63.375H100.425C101.841 63.375 103 62.2781 103 60.9375V56.0625C103 54.7219 101.841 53.625 100.425 53.625ZM25.75 70.6875C21.4852 70.6875 18.025 67.4121 18.025 63.375C18.025 59.3379 21.4852 56.0625 25.75 56.0625C30.0148 56.0625 33.475 59.3379 33.475 63.375C33.475 67.4121 30.0148 70.6875 25.75 70.6875ZM77.25 70.6875C72.9852 70.6875 69.525 67.4121 69.525 63.375C69.525 59.3379 72.9852 56.0625 77.25 56.0625C81.5148 56.0625 84.975 59.3379 84.975 63.375C84.975 67.4121 81.5148 70.6875 77.25 70.6875ZM90.125 39H66.95V21.9375H74.0473L90.125 37.1566V39Z" fill="#0C1305"/>
</svg>
